<svg width="18" height="25" viewBox="0 0 18 25" fill="none" xmlns="http://www.w3.org/2000/svg">
<path fill-rule="evenodd" clip-rule="evenodd" d="M0.585787 0.585787C0.960859 0.210714 1.46957 0 2 0H16C16.5304 0 17.0391 0.210714 17.4142 0.585787C17.7893 0.960861 18 1.46957 18 2V24C18 24.3635 17.8027 24.6984 17.4848 24.8746C17.1668 25.0509 16.7783 25.0407 16.47 24.848L9 20.1792L1.53 24.848C1.22173 25.0407 0.833186 25.0509 0.515231 24.8746C0.197277 24.6984 0 24.3635 0 24V2C0 1.46957 0.210714 0.960859 0.585787 0.585787ZM16 2H2L2 22.1958L8.47 18.152C8.79427 17.9493 9.20573 17.9493 9.53 18.152L16 22.1958V2Z" fill="white"/>
</svg>
