<svg width="30" height="30" viewBox="0 0 30 30" fill="none" xmlns="http://www.w3.org/2000/svg">
<path d="M15 7.81625C16.46 6.84625 18.4425 6.25 20.625 6.25C22.8087 6.25 24.79 6.84625 26.25 7.81625V24.0663C24.79 23.0963 22.8087 22.5 20.625 22.5C18.4425 22.5 16.46 23.0963 15 24.0663M15 7.81625V24.0663V7.81625ZM15 7.81625C13.54 6.84625 11.5575 6.25 9.375 6.25C7.1925 6.25 5.21 6.84625 3.75 7.81625V24.0663C5.21 23.0963 7.1925 22.5 9.375 22.5C11.5575 22.5 13.54 23.0963 15 24.0663V7.81625Z" stroke="white" stroke-width="2" stroke-linecap="round" stroke-linejoin="round"/>
</svg>
