<svg width="25" height="26" viewBox="0 0 25 26" fill="none" xmlns="http://www.w3.org/2000/svg">
<path fill-rule="evenodd" clip-rule="evenodd" d="M3.54914 8.93195C5.4115 7.06958 8.33392 5.1875 12.5 5.1875C16.6661 5.1875 19.5885 7.06958 21.4509 8.93195C22.3798 9.86087 23.0496 10.7884 23.4883 11.4851C23.708 11.834 23.8708 12.1268 23.98 12.3354C24.0347 12.4397 24.076 12.5231 24.1044 12.5821C24.1186 12.6116 24.1296 12.6351 24.1374 12.652L24.1468 12.6724L24.1497 12.6788L24.1507 12.6811L24.1511 12.682C24.1511 12.682 24.1514 12.6827 23.4375 13C24.1514 13.3173 24.1511 13.318 24.1511 13.318L24.1507 13.3189L24.1497 13.3212L24.1468 13.3276L24.1374 13.348C24.1296 13.3649 24.1186 13.3884 24.1044 13.4179C24.076 13.4769 24.0347 13.5603 23.98 13.6646C23.8708 13.8732 23.708 14.166 23.4883 14.5149C23.0496 15.2116 22.3798 16.1391 21.4509 17.0681C19.5885 18.9304 16.6661 20.8125 12.5 20.8125C8.33392 20.8125 5.4115 18.9304 3.54914 17.0681C2.62021 16.1391 1.95037 15.2116 1.51173 14.5149C1.29203 14.166 1.12922 13.8732 1.01998 13.6646C0.965334 13.5603 0.924007 13.4769 0.895595 13.4179C0.881386 13.3884 0.870399 13.3649 0.862583 13.348L0.853228 13.3276L0.85032 13.3212L0.849306 13.3189L0.848909 13.318C0.848909 13.318 0.848585 13.3173 1.5625 13C0.848585 12.6827 0.848909 12.682 0.848909 12.682L0.849306 12.6811L0.85032 12.6788L0.853228 12.6724L0.862583 12.652C0.870399 12.6351 0.881386 12.6116 0.895595 12.5821C0.924007 12.5231 0.965334 12.4397 1.01998 12.3354C1.12922 12.1268 1.29203 11.834 1.51173 11.4851C1.95037 10.7884 2.62021 9.86087 3.54914 8.93195ZM1.5625 13L0.848585 12.6827C0.758805 12.8847 0.758805 13.1153 0.848585 13.3173L1.5625 13ZM2.43603 13C2.52794 13.1722 2.65993 13.4059 2.83397 13.6824C3.22541 14.3041 3.8251 15.1343 4.65399 15.9632C6.30725 17.6165 8.85358 19.25 12.5 19.25C16.1464 19.25 18.6927 17.6165 20.346 15.9632C21.1749 15.1343 21.7746 14.3041 22.166 13.6824C22.3401 13.4059 22.4721 13.1722 22.564 13C22.4721 12.8278 22.3401 12.5941 22.166 12.3176C21.7746 11.6959 21.1749 10.8657 20.346 10.0368C18.6927 8.38354 16.1464 6.75 12.5 6.75C8.85358 6.75 6.30725 8.38354 4.65399 10.0368C3.8251 10.8657 3.22541 11.6959 2.83397 12.3176C2.65993 12.5941 2.52794 12.8278 2.43603 13ZM23.4375 13L24.1514 13.3173C24.2412 13.1153 24.2412 12.8847 24.1514 12.6827L23.4375 13Z" fill="#5F351F"/>
<path fill-rule="evenodd" clip-rule="evenodd" d="M12.5 9.875C10.7741 9.875 9.375 11.2741 9.375 13C9.375 14.7259 10.7741 16.125 12.5 16.125C14.2259 16.125 15.625 14.7259 15.625 13C15.625 11.2741 14.2259 9.875 12.5 9.875ZM7.8125 13C7.8125 10.4112 9.91117 8.3125 12.5 8.3125C15.0888 8.3125 17.1875 10.4112 17.1875 13C17.1875 15.5888 15.0888 17.6875 12.5 17.6875C9.91117 17.6875 7.8125 15.5888 7.8125 13Z" fill="#5F351F"/>
</svg>
