<svg width="25" height="25" viewBox="0 0 25 25" fill="none" xmlns="http://www.w3.org/2000/svg">
<path fill-rule="evenodd" clip-rule="evenodd" d="M4.16197 3.32818C4.48124 3.03794 4.97534 3.06147 5.26558 3.38073L20.8906 20.5682C21.1808 20.8875 21.1573 21.3816 20.838 21.6718C20.5188 21.9621 20.0247 21.9385 19.7344 21.6193L4.10942 4.43178C3.81918 4.11252 3.84271 3.61842 4.16197 3.32818Z" fill="#5F351F"/>
<path fill-rule="evenodd" clip-rule="evenodd" d="M10.4511 9.08394C10.7413 9.40323 10.7178 9.89733 10.3985 10.1875C9.93174 10.6118 9.60429 11.1673 9.45919 11.7811C9.31409 12.3949 9.35813 13.0383 9.58551 13.6266C9.81289 14.2149 10.213 14.7207 10.7332 15.0774C11.2534 15.4341 11.8693 15.625 12.5 15.625L12.5029 15.625C13.2787 15.628 14.0271 15.3386 14.5992 14.8146C14.9173 14.5231 15.4115 14.5448 15.703 14.8629C15.9944 15.1811 15.9728 15.6753 15.6546 15.9667C14.7933 16.7558 13.6665 17.1916 12.4984 17.1875C11.5528 17.1872 10.6295 16.9008 9.84957 16.366C9.06928 15.831 8.46915 15.0724 8.12808 14.1899C7.787 13.3074 7.72095 12.3424 7.9386 11.4217C8.15625 10.501 8.64742 9.66765 9.34753 9.03129C9.66682 8.74108 10.1609 8.76465 10.4511 9.08394Z" fill="#5F351F"/>
<path fill-rule="evenodd" clip-rule="evenodd" d="M7.92403 6.34714C8.1185 6.7323 7.96391 7.20218 7.57875 7.39665C5.72181 8.33423 4.39115 9.69239 3.52073 10.829C3.08682 11.3957 2.77164 11.9016 2.56651 12.2626C2.51635 12.3508 2.47286 12.4303 2.43589 12.4997C2.52781 12.6719 2.65986 12.9058 2.83404 13.1824C3.22548 13.8041 3.82517 14.6343 4.65406 15.4632C6.30732 17.1165 8.85365 18.75 12.5001 18.75H12.5064C14.2129 18.7639 15.898 18.3708 17.422 17.6031C17.8074 17.409 18.2771 17.564 18.4712 17.9494C18.6653 18.3347 18.5103 18.8044 18.125 18.9985C16.38 19.8775 14.4506 20.328 12.4968 20.3125C8.33247 20.3116 5.41108 18.43 3.5492 16.5681C2.62028 15.6392 1.95044 14.7116 1.5118 14.0149C1.2921 13.666 1.12928 13.3732 1.02005 13.1647C0.965401 13.0603 0.924075 12.9769 0.895663 12.9179C0.881454 12.8884 0.870467 12.865 0.862651 12.8481L0.853295 12.8277L0.850387 12.8212L0.849374 12.8189L0.848977 12.8181C0.848977 12.8181 0.848653 12.8173 1.56257 12.5C0.848349 12.1834 0.84858 12.1829 0.84858 12.1829L0.849507 12.1808L0.851295 12.1768L0.856768 12.1648C0.861263 12.1549 0.867455 12.1415 0.875363 12.1247C0.891178 12.091 0.913871 12.0437 0.943604 11.9842C1.00305 11.8652 1.09076 11.6969 1.20804 11.4906C1.44236 11.0782 1.79613 10.5112 2.28019 9.87905C3.24571 8.61822 4.74708 7.076 6.87451 6.00186C7.25968 5.80739 7.72956 5.96197 7.92403 6.34714ZM1.56257 12.5L0.84858 12.1829C0.759099 12.3848 0.758979 12.6156 0.848653 12.8173L1.56257 12.5Z" fill="#5F351F"/>
<path fill-rule="evenodd" clip-rule="evenodd" d="M10.3495 4.86426C11.0604 4.74526 11.78 4.68614 12.5008 4.68752L12.5 5.46877V4.68752H12.5008C16.6664 4.68776 19.5886 6.56973 21.4509 8.43197C22.3798 9.3609 23.0496 10.2885 23.4883 10.9851C23.708 11.3341 23.8708 11.6269 23.98 11.8354C24.0347 11.9397 24.076 12.0231 24.1044 12.0821C24.1186 12.1117 24.1296 12.1351 24.1374 12.152L24.1468 12.1724L24.1497 12.1788L24.1507 12.1811L24.1511 12.182C24.1511 12.182 24.1514 12.1827 23.4375 12.5C22.7236 12.1827 22.7237 12.1824 22.7237 12.1824L22.7178 12.1953C22.7123 12.2072 22.7031 12.2268 22.6902 12.2533C22.6644 12.3064 22.6239 12.3875 22.5682 12.4922C22.5668 12.4948 22.5654 12.4974 22.564 12.5C22.4721 12.3279 22.3401 12.0941 22.166 11.8177C21.7746 11.196 21.1749 10.3657 20.346 9.53683C18.6927 7.88356 16.1464 6.25002 12.5 6.25002H12.4985C11.8649 6.24877 11.2324 6.30072 10.6075 6.40532C10.1819 6.47655 9.77922 6.18932 9.70799 5.76377C9.63675 5.33822 9.92398 4.9355 10.3495 4.86426ZM23.4375 12.5L24.1514 12.8173C24.2412 12.6153 24.2412 12.3847 24.1514 12.1827L23.4375 12.5ZM22.564 12.5C22.4524 12.7091 22.2818 13.0088 22.0488 13.3652C21.5758 14.0885 20.8519 15.0354 19.8502 15.9314C19.5287 16.2191 19.5011 16.713 19.7888 17.0346C20.0765 17.3561 20.5704 17.3836 20.8919 17.096C22.0192 16.0876 22.8285 15.0277 23.3565 14.2203C23.621 13.8158 23.8165 13.4722 23.9473 13.2266C24.0128 13.1037 24.0621 13.0051 24.0959 12.9354C24.1128 12.9006 24.1259 12.8729 24.1351 12.8531L24.1461 12.8292L24.1495 12.8217L24.1506 12.8191L24.1511 12.8181C24.1511 12.8181 24.1514 12.8173 23.4375 12.5C22.7236 12.8173 22.7238 12.8179 22.7238 12.8179L22.7192 12.8077C22.7147 12.798 22.7072 12.782 22.6966 12.76C22.6754 12.716 22.642 12.6483 22.5959 12.5604C22.5859 12.5412 22.5752 12.5211 22.564 12.5Z" fill="#5F351F"/>
<path fill-rule="evenodd" clip-rule="evenodd" d="M12.4648 8.51664C12.5451 8.09271 12.9539 7.81416 13.3778 7.89449C14.3751 8.08344 15.2838 8.59165 15.9669 9.34241C16.65 10.0932 17.0704 11.0457 17.1645 12.0564C17.2046 12.486 16.8888 12.8667 16.4592 12.9068C16.0295 12.9468 15.6488 12.631 15.6088 12.2014C15.5461 11.5283 15.2661 10.8939 14.8112 10.3939C14.3563 9.89396 13.7511 9.55551 13.0869 9.42967C12.663 9.34935 12.3844 8.94057 12.4648 8.51664Z" fill="#5F351F"/>
</svg>
