<svg width="24" height="25" viewBox="0 0 24 25" fill="none" xmlns="http://www.w3.org/2000/svg">
<path fill-rule="evenodd" clip-rule="evenodd" d="M10.6515 0.523022C11.02 0.186567 11.501 0 12 0C12.499 0 12.98 0.186567 13.3485 0.523021L13.35 0.524364L23.3475 9.60962L23.3616 9.62266C23.5592 9.8093 23.7175 10.0336 23.8271 10.2823C23.9367 10.5311 23.9955 10.7992 23.9999 11.071L24 11.0872V22.6497C24 23.1801 23.7893 23.6888 23.4142 24.0639C23.0391 24.439 22.5304 24.6497 22 24.6497H16C15.4696 24.6497 14.9609 24.439 14.5858 24.0639C14.2107 23.6888 14 23.1801 14 22.6497V16.6497H10V22.6497C10 23.1801 9.78929 23.6888 9.41421 24.0639C9.03914 24.439 8.53043 24.6497 8 24.6497H2C1.46957 24.6497 0.960861 24.439 0.585787 24.0639C0.210714 23.6888 0 23.1801 0 22.6497V11.0872L0.000130832 11.071C0.00452799 10.7992 0.0632622 10.5311 0.172876 10.2823C0.282489 10.0336 0.440765 9.8093 0.638384 9.62266L0.652465 9.60962L10.65 0.524364L10.6515 0.523022ZM2.00947 11.0789L11.9975 2.00225L12 2L12.0025 2.00225L21.9905 11.0789C21.9932 11.0818 21.9953 11.0852 21.997 11.0888C21.9986 11.0926 21.9996 11.0967 22 11.1008V22.6497H16V16.6497C16 16.1193 15.7893 15.6105 15.4142 15.2355C15.0391 14.8604 14.5304 14.6497 14 14.6497H10C9.46957 14.6497 8.96086 14.8604 8.58579 15.2355C8.21071 15.6105 8 16.1192 8 16.6497V22.6497H2V11.1008C2.00035 11.0967 2.00138 11.0926 2.00305 11.0888C2.00465 11.0852 2.00682 11.0818 2.00947 11.0789Z" fill="black"/>
</svg>
