<svg width="18" height="20" viewBox="0 0 18 20" fill="none" xmlns="http://www.w3.org/2000/svg">
<path d="M17.3889 14.0731C16.8389 13.1231 16.1833 11.3241 16.1833 8.14815V7.49074C16.1824 3.39074 12.8908 0.0305556 8.84446 0H8.79261C6.81668 0.00277778 4.95928 0.775 3.56483 2.17407C2.16946 3.57315 1.40279 5.43148 1.40557 7.40741V8.14815C1.40557 11.3241 0.750017 13.1231 0.199091 14.0741C0.0694611 14.2972 1.66394e-05 14.5519 1.66394e-05 14.8093C-0.00183521 15.2046 0.150943 15.5778 0.430572 15.8583C0.710202 16.1389 1.08057 16.2944 1.47965 16.2963H5.08983C5.08983 18.3389 6.75094 20 8.79354 20C10.8361 20 12.4972 18.3389 12.4972 16.2963H16.1111C16.3695 16.2963 16.6241 16.2269 16.8463 16.0981C17.1889 15.9 17.4343 15.5806 17.5371 15.1991C17.6398 14.8167 17.5871 14.4176 17.3889 14.0741V14.0731ZM8.79446 18.5185C7.56946 18.5185 6.57224 17.5213 6.57224 16.2963H11.0167C11.0167 17.5213 10.0195 18.5185 8.79446 18.5185ZM11.7621 14.8148C11.7621 14.8148 11.7593 14.8148 11.7574 14.8148C11.7556 14.8148 11.7546 14.8148 11.7528 14.8148H5.84076C5.84076 14.8148 5.83428 14.8148 5.83057 14.8148C5.82687 14.8148 5.82409 14.8148 5.82039 14.8148H1.4815C2.12224 13.7074 2.88705 11.6519 2.88705 8.14722V7.40648C2.8852 5.825 3.49816 4.33796 4.61391 3.21944C5.72965 2.1 7.21483 1.48241 8.79631 1.48056H8.8352C12.0704 1.50556 14.7019 4.20093 14.7019 7.48981V8.14722C14.7019 11.6519 15.4658 13.7074 16.1093 14.8139H11.7621V14.8148Z" fill="#5F351F"/>
</svg>
