<svg width="20" height="19" viewBox="0 0 20 19" fill="none" xmlns="http://www.w3.org/2000/svg">
<path d="M2.37392 3.18143L2.37413 3.18122C5.11741 0.468249 9.53556 0.0724823 12.7471 2.26098L12.7471 2.26099C14.3206 3.33354 15.3511 4.7657 15.7481 6.53975C16.2664 8.83902 15.6933 10.922 14.0842 12.7462C14.0942 12.7561 14.1042 12.7659 14.1141 12.7756C14.1875 12.8477 14.2563 12.9154 14.3267 12.9804L14.3269 12.9805C15.0597 13.6598 15.7939 14.3377 16.5282 15.0158L16.5296 15.0172L16.5305 15.0179C17.2649 15.6961 17.9994 16.3744 18.7326 17.054L2.37392 3.18143ZM2.37392 3.18143C-0.302898 5.83887 -0.37631 9.97289 2.17201 12.7712M2.37392 3.18143L2.17201 12.7712M2.17201 12.7712C4.5981 15.4416 9.44155 16.4395 13.1868 13.5886C13.2996 13.6949 13.4118 13.8009 13.5236 13.9065C13.9305 14.2909 14.3329 14.671 14.7412 15.048L2.17201 12.7712ZM18.9592 17.3678L18.8163 17.4133L18.9589 17.3669C19.0005 17.4947 19.008 17.6293 18.9602 17.7561L18.9592 17.3678ZM18.9592 17.3678C18.9183 17.2392 18.813 17.1283 18.7328 17.0542L18.9592 17.3678ZM8.12708 14.103H8.12706C4.49539 14.1131 1.61181 11.4397 1.58994 8.11817C1.56807 4.78674 4.43476 2.0627 8.11062 2.0627C11.9506 2.0627 14.6645 4.95904 14.6481 8.07686L14.6482 8.07897C14.6755 11.1813 11.9838 14.0928 8.12708 14.103Z" fill="#5F351F" stroke="#5F351F" stroke-width="0.3"/>
</svg>
