<svg width="20" height="19" viewBox="0 0 20 19" fill="none" xmlns="http://www.w3.org/2000/svg">
<path d="M18.8163 17.4133L18.9592 17.3678C18.9183 17.2392 18.813 17.1283 18.7328 17.0542C17.9996 16.3745 17.265 15.6962 16.5305 15.0179L16.5296 15.0172C15.7948 14.3386 15.0602 13.6602 14.3269 12.9805L14.3267 12.9803C14.2563 12.9154 14.1875 12.8477 14.1141 12.7756C14.1042 12.7659 14.0942 12.7561 14.0842 12.7462C15.6933 10.922 16.2664 8.83902 15.7481 6.53975C15.3511 4.7657 14.3206 3.33354 12.7471 2.26099L12.7471 2.26098C9.53555 0.0724823 5.11741 0.468249 2.37413 3.18122L2.37392 3.18143C-0.302898 5.83888 -0.37631 9.97289 2.17201 12.7712C4.5981 15.4416 9.44155 16.4395 13.1868 13.5886C13.2996 13.6949 13.4118 13.8009 13.5237 13.9066C13.9306 14.2909 14.3329 14.671 14.7412 15.048C15.431 15.6884 16.1234 16.3266 16.8147 16.9639C17.1599 17.2821 17.5049 17.6 17.8491 17.9179C17.9536 18.0144 18.0758 18.0994 18.2193 18.1339C18.3681 18.1695 18.5229 18.1469 18.681 18.0583M18.8163 17.4133L18.9589 17.3669C19.0005 17.4947 19.008 17.6293 18.9602 17.7561C18.9121 17.8837 18.8149 17.9851 18.681 18.0583M18.8163 17.4133C18.7882 17.3251 18.7095 17.2368 18.6308 17.1642L2.28291 12.6702C4.68255 15.3116 9.50432 16.2872 13.1965 13.3915C13.341 13.5277 13.4844 13.6631 13.6272 13.798C14.0339 14.1822 14.4354 14.5615 14.8431 14.938C15.5326 15.5781 16.2245 16.2159 16.9156 16.8529C17.261 17.1713 17.6063 17.4895 17.9508 17.8077C18.1419 17.9841 18.3498 18.0723 18.6084 17.927M18.8163 17.4133C18.8837 17.6208 18.8275 17.8077 18.6084 17.927M18.681 18.0583C18.6813 18.0581 18.6816 18.0579 18.6819 18.0578L18.6084 17.927M18.681 18.0583C18.6807 18.0584 18.6804 18.0586 18.6801 18.0588L18.6084 17.927M8.12708 14.103L8.12706 14.103C4.49539 14.1131 1.61181 11.4397 1.58994 8.11817C1.56807 4.78674 4.43476 2.0627 8.11062 2.0627C11.9506 2.0627 14.6645 4.95904 14.6481 8.07686L14.6482 8.07897C14.6755 11.1813 11.9838 14.0928 8.12708 14.103Z" fill="#5F351F" stroke="#5F351F" stroke-width="0.3"/>
</svg>
