<svg width="26" height="25" viewBox="0 0 26 25" fill="none" xmlns="http://www.w3.org/2000/svg">
<path fill-rule="evenodd" clip-rule="evenodd" d="M0 2.36629C0 1.26172 0.89543 0.366285 2 0.366285H6C7.10457 0.366285 8 1.26172 8 2.36629V22.3663C8 23.4709 7.10457 24.3663 6 24.3663H2C0.89543 24.3663 0 23.4709 0 22.3663V2.36629ZM6 2.36629H2V22.3663H6V2.36629Z" fill="white"/>
<path fill-rule="evenodd" clip-rule="evenodd" d="M0 6.36629C0 5.814 0.447715 5.36629 1 5.36629H7C7.55228 5.36629 8 5.814 8 6.36629C8 6.91857 7.55228 7.36629 7 7.36629H1C0.447715 7.36629 0 6.91857 0 6.36629Z" fill="white"/>
<path fill-rule="evenodd" clip-rule="evenodd" d="M6 2.36629C6 1.26172 6.89543 0.366285 8 0.366285H12C13.1046 0.366285 14 1.26172 14 2.36629V22.3663C14 23.4709 13.1046 24.3663 12 24.3663H8C6.89543 24.3663 6 23.4709 6 22.3663V2.36629ZM12 2.36629H8V22.3663H12V2.36629Z" fill="white"/>
<path fill-rule="evenodd" clip-rule="evenodd" d="M6 18.3663C6 17.814 6.44772 17.3663 7 17.3663H13C13.5523 17.3663 14 17.814 14 18.3663C14 18.9186 13.5523 19.3663 13 19.3663H7C6.44772 19.3663 6 18.9186 6 18.3663Z" fill="white"/>
<path fill-rule="evenodd" clip-rule="evenodd" d="M12.3821 3.56898C12.0949 2.49755 12.7306 1.39617 13.8021 1.10898L17.6821 0.0689806C18.7535 -0.218207 19.8549 0.417548 20.1421 1.48898L25.3421 20.889C25.6292 21.9604 24.9935 23.0618 23.9221 23.349L20.0421 24.389C18.9706 24.6762 17.8692 24.0404 17.5821 22.969L12.3821 3.56898ZM18.2021 2.00898L14.3221 3.04898L19.5221 22.449L23.4021 21.409L18.2021 2.00898Z" fill="white"/>
<path fill-rule="evenodd" clip-rule="evenodd" d="M24.1655 16.9436C24.3091 17.4768 23.9933 18.0256 23.46 18.1693L17.66 19.7318C17.1268 19.8754 16.578 19.5596 16.4343 19.0263C16.2907 18.493 16.6065 17.9443 17.1398 17.8006L22.9398 16.2381C23.4731 16.0945 24.0218 16.4103 24.1655 16.9436Z" fill="white"/>
<path fill-rule="evenodd" clip-rule="evenodd" d="M21.0662 5.35811C21.2087 5.89167 20.8918 6.4398 20.3582 6.58239L14.5582 8.13239C14.0247 8.27497 13.4765 7.95803 13.334 7.42447C13.1914 6.89091 13.5083 6.34278 14.0419 6.20019L19.8419 4.65019C20.3754 4.5076 20.9236 4.82455 21.0662 5.35811Z" fill="white"/>
</svg>
